<svg width="20" height="20" viewBox="0 0 20 20" fill="none" xmlns="http://www.w3.org/2000/svg">
<g filter="url(#filter0_d_1_128)">
<path fill-rule="evenodd" clip-rule="evenodd" d="M11.4296 7.96781C12.7914 7.40572 13.7499 6.06478 13.7499 4.5C13.7499 2.42893 12.0709 0.75 9.99986 0.75C7.92879 0.75 6.24986 2.42893 6.24986 4.5C6.24986 6.06473 7.20821 7.40563 8.56996 7.96775C7.17531 8.19993 5.89238 8.76594 4.80811 9.58058L6.18966 11.4194C7.25095 10.6221 8.56849 10.15 9.99961 10.15C11.4307 10.15 12.7483 10.6221 13.8096 11.4194L15.1911 9.58058C14.1069 8.76601 12.8241 8.20003 11.4296 7.96781Z" fill="black"/>
</g>
<defs>
<filter id="filter0_d_1_128" x="0.808105" y="0.75" width="18.3828" height="18.6694" filterUnits="userSpaceOnUse" color-interpolation-filters="sRGB">
<feFlood flood-opacity="0" result="BackgroundImageFix"/>
<feColorMatrix in="SourceAlpha" type="matrix" values="0 0 0 0 0 0 0 0 0 0 0 0 0 0 0 0 0 0 127 0" result="hardAlpha"/>
<feOffset dy="4"/>
<feGaussianBlur stdDeviation="2"/>
<feComposite in2="hardAlpha" operator="out"/>
<feColorMatrix type="matrix" values="0 0 0 0 0 0 0 0 0 0 0 0 0 0 0 0 0 0 0.25 0"/>
<feBlend mode="normal" in2="BackgroundImageFix" result="effect1_dropShadow_1_128"/>
<feBlend mode="normal" in="SourceGraphic" in2="effect1_dropShadow_1_128" result="shape"/>
</filter>
</defs>
</svg>
